<svg id="Capa_1" enable-background="new 0 0 512 512" height="512" viewBox="0 0 512 512" width="512" xmlns="http://www.w3.org/2000/svg"><path d="m193.551 301.335c7.134 0 13.917-3.089 18.61-8.475 2.721-3.123 2.396-7.86-.727-10.582-3.122-2.721-7.86-2.395-10.582.727-1.844 2.116-4.505 3.33-7.302 3.33s-5.458-1.214-7.302-3.33c-2.721-3.122-7.459-3.447-10.581-.727-3.123 2.722-3.448 7.459-.727 10.582 4.694 5.386 11.477 8.475 18.611 8.475zm124.897 0c7.134 0 13.918-3.089 18.61-8.476 2.721-3.123 2.395-7.86-.728-10.581s-7.86-2.396-10.582.728c-1.843 2.115-4.504 3.329-7.301 3.329s-5.457-1.214-7.302-3.33c-2.721-3.122-7.459-3.447-10.582-.727-3.123 2.722-3.448 7.459-.727 10.582 4.695 5.386 11.478 8.475 18.612 8.475zm144.454 129.011c-202.782-350.72-189.846-330.075-193.4-333.588l37.171-64.381c2.071-3.587.842-8.174-2.745-10.245-3.588-2.071-8.174-.843-10.245 2.745l-30.184 52.28v-69.657c0-4.143-3.358-7.5-7.5-7.5s-7.5 3.357-7.5 7.5v69.656l-30.183-52.279c-2.071-3.588-6.658-4.816-10.245-2.745s-4.816 6.658-2.745 10.245l37.17 64.382c-3.441 3.4.661-2.043-75.607 129.564-2.071 3.587-.842 8.174 2.745 10.245 3.586 2.068 8.173.843 10.245-2.745l9.013-15.61h59.607v37.787c0 4.143 3.358 7.5 7.5 7.5s7.5-3.357 7.5-7.5v-37.788h59.608l81.567 141.278-37.069 67.46c-2.162 3.935-7.247 5.174-10.984 2.624l-47.327-32.321c-6.48-26.176-27.91-45.451-53.293-45.451s-46.812 19.275-53.293 45.45l-47.328 32.321c-3.708 2.533-8.805 1.342-10.983-2.625l-37.069-67.46 54.788-94.896c2.071-3.587.842-8.174-2.745-10.245-3.588-2.07-8.175-.843-10.245 2.745l-100.03 173.254c-8.478 14.684-3.195 33.497 11.809 41.527 55.509 29.7 132.177 40.127 195.093 40.127 49.865 0 95.922-5.863 136.891-17.427 3.986-1.125 6.306-5.269 5.181-9.255s-5.27-6.306-9.255-5.181c-39.643 11.189-84.329 16.863-132.817 16.863-105.003 0-166.465-26.821-188.017-38.353-7.509-4.017-10.143-13.446-5.896-20.801l36.469-63.167 32.692 59.494c6.426 11.695 21.571 15.315 32.589 7.788l36.916-25.211c1.372 32.836 25.624 59.078 55.246 59.078s53.874-26.241 55.246-59.077l36.915 25.21c11.001 7.514 26.15 3.932 32.59-7.787l32.692-59.495 36.469 63.167c4.244 7.351 1.617 16.781-5.896 20.801-6.766 3.621-14.284 7.106-22.345 10.359-3.841 1.55-5.699 5.921-4.148 9.762 1.557 3.859 5.938 5.692 9.762 4.148 8.559-3.454 16.569-7.17 23.809-11.043 14.952-8.002 20.32-26.788 11.811-41.527zm-210.612-321.944c1.65-2.858 5.77-2.854 7.418 0l30.145 52.212h-67.707zm-54.739 94.81 15.934-27.598h85.027l15.934 27.598zm58.447 257.616c-22.228 0-40.312-21.09-40.312-47.013s18.084-47.013 40.312-47.013c22.229 0 40.313 21.09 40.313 47.013s-18.084 47.013-40.313 47.013zm.001-133.416c25.723 0 45.42-20.888 34.753-36.67-9.733-14.4-24.889-5.125-34.753-5.125-9.856 0-25.042-9.242-34.753 5.125-3.672 5.434-3.846 12.189-.477 18.532 5.672 10.679 20.16 18.138 35.23 18.138zm-22.325-28.269c1.246-1.845 2.051-2.097 9.68-.351 3.737.855 7.973 1.825 12.646 1.825s8.909-.97 12.646-1.825c7.856-1.8 8.49-1.412 9.68.351 1.939 2.86-6.53 13.27-22.326 13.27-15.671-.001-24.299-10.36-22.326-13.27z"/></svg>