<svg height="512" viewBox="0 0 60 60" width="512" xmlns="http://www.w3.org/2000/svg"><g id="003---Organic-Recipies"><path id="Shape" d="m57 8h-2v-6c0-1.1045695-.8954305-2-2-2h-20c-1.1520723.00650088-2.245399.50943115-3 1.38-.754601-.87056885-1.8479277-1.37349912-3-1.38h-20c-1.1045695 0-2 .8954305-2 2v6h-2c-1.65685425 0-3 1.34314575-3 3v46c0 1.6568542 1.34314575 3 3 3h54c1.6568542 0 3-1.3431458 3-3v-46c0-1.65685425-1.3431458-3-3-3zm-50 44h20c1.1045695 0 2 .8954305 2 2h-22zm26-50h20v48h-20c-.7025196.0012467-1.3923207.187493-2 .54v-46.54c0-1.1045695.8954305-2 2-2zm20 50v2h-22c0-1.1045695.8954305-2 2-2zm-46-50h20c1.1045695 0 2 .8954305 2 2v46.56c-.6039929-.3635516-1.2950401-.5570448-2-.56h-20zm51 55c0 .5522847-.4477153 1-1 1h-54c-.55228475 0-1-.4477153-1-1v-46c0-.5522847.44771525-1 1-1h2v44c0 1.1045695.8954305 2 2 2h46c1.1045695 0 2-.8954305 2-2v-44h2c.5522847 0 1 .4477153 1 1z"/><path id="Shape" d="m44.64 15.83 2.08-2.13c.3865993-.397645.377645-1.0334007-.02-1.42s-1.0334007-.377645-1.42.02l-.75.78c-.214694-.851203-.5731805-1.6594887-1.06-2.39 1.661524-1.06585564 3.4709275-1.88126652 5.37-2.42.23 2.15.36 5.72-.62 7.21-.5440318.831761-1.3142112 1.4909235-2.22 1.9-.4274182.1947244-.6617191.6606653-.5631423 1.1198892.0985769.4592238.5034623.7879572.9731423.7901108 1.4421226-.4472616 2.6675657-1.4126544 3.44-2.71 1.82-2.77.89-9 .78-9.74-.0385631-.27307266-.1881869-.51809728-.4134921-.6771362-.2253051-.15903893-.5062878-.21797189-.7765079-.1628638-.21 0-4.82 1.22-7.38 3.23-2.58-1.92-6.93-3.05-7.52-3.23-.2730114-.0679073-.5619989-.01767333-.7960797.13838052-.2340807.15605384-.3915996.40349079-.4339203.68161948-.11.72-1 7.12.86 9.93 3.15 4.72 9.54 4.14 10.47-.92zm-9.49-7.56c2.43.73 5.69 2.09 6.64 3.5 1.049561 1.3857066 1.2385736 3.2411154.49 4.81l-2.49-3.19c-.3480706-.3974888-.9452983-.4556194-1.3634877-.1327136-.4181894.3229057-.513025.9154143-.2165123 1.3527136l2.52 3.24c-1.6.53-3.66-.34-4.9-2.18-1.02-1.53-.9-5.2-.68-7.4z"/><path id="Shape" d="m49 23h-14c-.5522847 0-1 .4477153-1 1s.4477153 1 1 1h14c.5522847 0 1-.4477153 1-1s-.4477153-1-1-1z"/><path id="Shape" d="m49 33h-14c-.5522847 0-1 .4477153-1 1s.4477153 1 1 1h14c.5522847 0 1-.4477153 1-1s-.4477153-1-1-1z"/><path id="Shape" d="m41 43h-6c-.5522847 0-1 .4477153-1 1s.4477153 1 1 1h6c.5522847 0 1-.4477153 1-1s-.4477153-1-1-1z"/><path id="Shape" d="m49 28h-2c-.5522847 0-1 .4477153-1 1s.4477153 1 1 1h2c.5522847 0 1-.4477153 1-1s-.4477153-1-1-1z"/><path id="Shape" d="m35 30h8c.5522847 0 1-.4477153 1-1s-.4477153-1-1-1h-8c-.5522847 0-1 .4477153-1 1s.4477153 1 1 1z"/><path id="Shape" d="m35 40h2c.5522847 0 1-.4477153 1-1s-.4477153-1-1-1h-2c-.5522847 0-1 .4477153-1 1s.4477153 1 1 1z"/><path id="Shape" d="m49 38h-8c-.5522847 0-1 .4477153-1 1s.4477153 1 1 1h8c.5522847 0 1-.4477153 1-1s-.4477153-1-1-1z"/><path id="Shape" d="m14 23.78v20.22c0 2.209139 1.790861 4 4 4s4-1.790861 4-4v-20.22c2.5542682-1.7579073 4.0565193-4.6797855 4-7.78 0-5-3.57-11-8-11s-8 6-8 11c-.05651926 3.1002145 1.4457318 6.0220927 4 7.78zm6 20.22c0 1.1045695-.8954305 2-2 2s-2-.8954305-2-2v-19.3c1.3032719.4004096 2.6967281.4004096 4 0zm-2-37c3.17 0 6 5 6 9s-2.69 7-6 7-6-3.14-6-7 2.83-9 6-9z"/></g></svg>