<svg height="512" viewBox="0 0 64 64" width="512" xmlns="http://www.w3.org/2000/svg"><path d="m32 2a30 30 0 1 0 30 30 30.034 30.034 0 0 0 -30-30zm0 58a28 28 0 1 1 28-28 28.032 28.032 0 0 1 -28 28z"/><path d="m41.233 18.321c1.2-.118 2.066-.222 2.525-.281l5.687 3.792a1 1 0 0 0 1.525-1.075l-.939-3.757.939-3.757a1 1 0 0 0 -1.525-1.075l-5.161 3.441c-1.69-2.379-7.174-8.609-18.284-8.609-8.828 0-11.789 6.319-11.911 6.587a1 1 0 0 0 .179 1.094c.153.165 3.649 3.831 11.221 4.274a11.579 11.579 0 0 0 -4.4 4.632 1 1 0 0 0 .179 1.094c.163.176 4.111 4.319 12.732 4.319a139.448 139.448 0 0 0 16.758-.96l5.687 3.792a1 1 0 0 0 1.525-1.075l-.939-3.757.939-3.757a1 1 0 0 0 -1.525-1.075l-5.161 3.441a20.533 20.533 0 0 0 -10.051-7.288zm-6.233.762a20.172 20.172 0 0 1 12.354 5.106 31.521 31.521 0 0 0 -12.354-2.26zm0 4.852a30.019 30.019 0 0 1 12.461 2.452c-2.81.264-7.189.573-12.461.609zm-7-14.852a20.172 20.172 0 0 1 12.354 5.106 31.5 31.5 0 0 0 -12.354-2.259zm0 4.852a30.017 30.017 0 0 1 12.461 2.452c-2.81.264-7.189.573-12.461.609zm20.4 1.332-.372 1.49a1 1 0 0 0 0 .486l.372 1.49-2.6-1.733zm-22.4-6.267v7.977a18.355 18.355 0 0 1 -7.841-1.977h4.841v-2h-6.149a11.3 11.3 0 0 1 9.149-4zm7 10v7.977a18.355 18.355 0 0 1 -7.841-1.977h4.841v-2h-6.149a11.3 11.3 0 0 1 9.149-4zm22.4 6.267-.372 1.49a1 1 0 0 0 0 .486l.372 1.49-2.6-1.733z"/><path d="m39 7h2v2h-2z"/><path d="m44 10h2v2h-2z"/><path d="m32 40a12 12 0 1 0 -12 12 12.013 12.013 0 0 0 12-12zm-12 10a10 10 0 1 1 10-10 10.011 10.011 0 0 1 -10 10z"/><path d="m16 41a1 1 0 0 1 -2 0h-2a3 3 0 0 0 6 0z"/><path d="m24 38a3 3 0 0 0 3-3h-2a1 1 0 0 1 -2 0h-2a3 3 0 0 0 3 3z"/><path d="m27 40h-2a7.008 7.008 0 0 0 -7 7 1 1 0 0 0 1 1h2a7.008 7.008 0 0 0 7-7 1 1 0 0 0 -1-1zm-6 6h-.9a5.008 5.008 0 0 1 4.9-4h.9a5.008 5.008 0 0 1 -4.9 4z"/><path d="m55.058 34a1.023 1.023 0 0 0 -.784.311l-1.239 1.309-2.328-2.328a1 1 0 0 0 -1.545.162l-13 20a2.069 2.069 0 0 0 -.111.269 1.965 1.965 0 0 0 -.036.362 1.086 1.086 0 0 0 .278.621l3 3a1 1 0 0 0 1.414 0l18-18a1 1 0 0 0 .093-1.306l-3-4a1.006 1.006 0 0 0 -.742-.4zm-4.892 1.58 1.493 1.493-7.848 8.284zm-10.166 20.006-1.6-1.6 15.38-16.244 1.13-1.192 1.769 2.358z"/><path d="m6.945 28c.262.014 1.209.06 2.461.06 2.491 0 6.187-.184 8.061-1.175a5.644 5.644 0 0 0 2.569-3.3 5.291 5.291 0 0 0 -.152-4.056c-1.234-2.334-4.964-2.679-7.351-1.417-2.851 1.507-6.068 7.727-6.425 8.431a1 1 0 0 0 .837 1.457zm5.829-5.525-3.048 1.777c.469-.741.982-1.486 1.5-2.164zm1.226 1.599v1.71a31.436 31.436 0 0 1 -3.361.251zm4.134-1.1a3.709 3.709 0 0 1 -1.6 2.145 4.128 4.128 0 0 1 -.533.216v-2.427l2.353-1.373a4.359 4.359 0 0 1 -.22 1.436zm-.755-3.183-2.132 1.244-2.5-.624a4.067 4.067 0 0 1 .719-.522 4.568 4.568 0 0 1 3.913-.101z"/><path d="m39.911 34.17a4 4 0 1 0 -3.911 4.83 3.922 3.922 0 0 0 1.089-.17 4 4 0 1 0 3.911-4.83 3.922 3.922 0 0 0 -1.089.17zm-5.911.83a2 2 0 1 1 3.945.449 3.981 3.981 0 0 0 -.651 1.064 1.99 1.99 0 0 1 -3.294-1.513zm9 3a2 2 0 1 1 -3.945-.449 3.981 3.981 0 0 0 .651-1.064 1.99 1.99 0 0 1 3.294 1.513z"/><path d="m37 48v-3h-1a5.006 5.006 0 0 0 -5 5v1h-1a5.006 5.006 0 0 0 -5 5v1h3a5 5 0 0 0 4.908-4.092 5 5 0 0 0 4.092-4.908zm-9 7h-.829a3.006 3.006 0 0 1 2.829-2h.829a3.006 3.006 0 0 1 -2.829 2zm7-7a3.006 3.006 0 0 1 -2 2.829v-.829a3.006 3.006 0 0 1 2-2.829z"/><path d="m42 31h2v2h-2z"/><path d="m34 41h2v2h-2z"/><path d="m6 31h2v2h-2z"/><path d="m53 19h2v2h-2z"/><path d="m16 39a3 3 0 1 0 -3-3 3 3 0 0 0 3 3zm0-4a1 1 0 1 1 -1 1 1 1 0 0 1 1-1z"/></svg>