<svg height="496pt" viewBox="0 0 496 496" width="496pt" xmlns="http://www.w3.org/2000/svg"><path d="m216 152c0 4.417969-3.582031 8-8 8s-8-3.582031-8-8 3.582031-8 8-8 8 3.582031 8 8zm0 0"/><path d="m296 152c0 4.417969-3.582031 8-8 8s-8-3.582031-8-8 3.582031-8 8-8 8 3.582031 8 8zm0 0"/><path d="m248 232c17.648438 0 32-14.351562 32-32h-16c0 8.824219-7.175781 16-16 16s-16-7.175781-16-16h-16c0 17.648438 14.351562 32 32 32zm0 0"/><path d="m248 0c-136.753906 0-248 111.246094-248 248s111.246094 248 248 248 248-111.246094 248-248-111.246094-248-248-248zm232 248c0 57.585938-21.136719 110.296875-56 150.894531v-46.109375c0-18.546875-9.175781-36.015625-24.105469-46.792968.007813-.671876.105469-1.320313.105469-1.992188v-6.367188l-104-24v-17.632812h-.207031c17.6875-13.238281 29.75-33.566406 31.839843-56.769531.121094-.023438.246094-.015625.367188-.039063v26.28125c-9.289062 3.3125-16 12.113282-16 22.527344 0 13.230469 10.769531 24 24 24s24-10.769531 24-24c0-10.414062-6.710938-19.214844-16-22.527344v-33.679687c9.65625-7.3125 16-18.785157 16-31.792969 0-9.039062-3.128906-17.296875-8.207031-24h.207031c8.824219 0 16-7.175781 16-16v-16c0-8.824219-7.175781-16-16-16h-8.40625c-2.066406-24.800781-13.59375-46.894531-30.953125-62.769531 96.558594 28.074219 167.359375 117.28125 167.359375 222.769531zm-367.847656 62.328125 10.917968-2.519531c1.890626 8.496094 4.632813 16.640625 8.113282 24.382812l-14.183594 7.878906c-2.648438-9.550781-4.375-19.46875-4.847656-29.742187zm55.847656-127.800781c-9.289062-3.3125-16-12.113282-16-22.527344s6.710938-19.214844 16-22.527344zm0 65.472656c0 4.414062-3.585938 8-8 8s-8-3.585938-8-8 3.585938-8 8-8 8 3.585938 8 8zm80-232c41.40625 0 75.566406 31.632812 79.59375 72h-56.050781c-2.101563-18.703125-11.519531-32-23.542969-32s-21.441406 13.296875-23.542969 32h-56.050781c4.027344-40.367188 38.1875-72 79.59375-72zm96 232c0 4.414062-3.585938 8-8 8s-8-3.585938-8-8 3.585938-8 8-8 8 3.585938 8 8zm-16-65.472656v-45.046875c9.289062 3.3125 16 12.113281 16 22.527343 0 10.417969-6.710938 19.207032-16 22.519532zm-32-62.527344v-16h56v16zm-71.542969-16c.671875 6 2.152344 11.375 4.183594 16h-12.640625v-16zm15.542969-8c0-15.488281 6.007812-24 8-24s8 8.511719 8 24-6.007812 24-8 24-8-8.511719-8-24zm31.542969 8h8.457031v16h-12.632812c2.023437-4.625 3.503906-10 4.175781-16zm-71.542969 0v16h-56v-16zm-16 32h128v56c0 35.289062-28.710938 64-64 64s-64-28.710938-64-64zm64 136c11.375 0 22.191406-2.425781 32-6.726562v12.085937c-3.945312 5.007813-16.152344 18.640625-32 18.640625-15.855469 0-28.070312-13.648438-32-18.640625v-12.085937c9.808594 4.300781 20.625 6.726562 32 6.726562zm-43.199219 16.953125c6.535157 7.832031 21.96875 23.046875 43.199219 23.046875s36.664062-15.214844 43.199219-23.046875l19.375 4.472656c-6.199219 29.238281-32.054688 50.574219-62.574219 50.574219s-56.375-21.335938-62.585938-50.574219zm148.941407 100.253906-14.949219-19.214843c7.0625-7.105469 13.253906-15.054688 18.511719-23.671876l16.421874 9.121094c-5.03125 12.253906-11.78125 23.605469-19.984374 33.765625zm-231.46875-33.765625 16.421874-9.128906c5.257813 8.617188 11.449219 16.566406 18.511719 23.671875l-14.949219 19.214844c-8.203124-10.152344-14.953124-21.503907-19.984374-33.757813zm64.710937-23.738281-19.921875 25.609375c-5.445312-5.6875-10.222656-12.007812-14.398438-18.761719l27.863282-15.480469c1.953125 3.042969 4.136718 5.898438 6.457031 8.632813zm11.582031 11.167969c2.539063 1.992187 5.167969 3.871094 7.9375 5.542968l-8.625 31.625c-6.695312-3.375-12.992187-7.4375-18.855468-12.039062zm22.632813 12.464844c5.984375 2.121093 12.273437 3.601562 18.800781 4.25v32.039062c-9.414062-.679688-18.519531-2.554688-27.207031-5.457031zm34.800781 4.25c6.527344-.648438 12.816406-2.128907 18.800781-4.25l8.40625 30.839843c-8.6875 2.894531-17.792969 4.777344-27.207031 5.457031zm33.496094-11.160157c2.769531-1.683593 5.398437-3.554687 7.9375-5.546875l19.542968 25.128906c-5.871093 4.601563-12.160156 8.664063-18.855468 12.039063zm25.96875-25.355469 27.863281 15.480469c-4.167969 6.753907-8.945313 13.074219-14.398437 18.761719l-19.921876-25.609375c2.328126-2.734375 4.511719-5.589844 6.457032-8.632813zm63.542968 17.007813-14.183593-7.878906c3.480469-7.742188 6.222656-15.886719 8.113281-24.382813l10.917969 2.519532c-.480469 10.265624-2.207031 20.183593-4.847657 29.742187zm-28.175781-15.652344-28.199219-15.664062c1.445313-3.785157 2.65625-7.691407 3.527344-11.746094l31.175782 7.191406c-1.542969 7.015625-3.710938 13.785157-6.503907 20.21875zm-180.992187-27.410156c.871094 4.046875 2.082031 7.960937 3.527344 11.746094l-28.199219 15.664062c-2.792969-6.433593-4.960938-13.203125-6.503907-20.21875zm-41.839844 99.9375v49.535156c-14.457031-8.769531-27.832031-19.121093-40-30.726562v-62.96875c0-9.855469 3.625-19.28125 9.792969-26.703125 3.871093 26.4375 14.519531 50.652344 30.207031 70.863281zm41.214844-16.34375c7.527344 5.894531 15.679687 11 24.386718 15.109375l-7.9375 29.089844c-12-6.214844-22.945312-14.175782-32.535156-23.527344zm39.359375 21.007813c10.035156 3.269531 20.554687 5.328124 31.425781 6.015624v31.976563c-13.832031-.808594-27.089844-3.664063-39.511719-8.3125zm47.425781 6.015624c10.871094-.679687 21.390625-2.746093 31.425781-6.015624l8.09375 29.671874c-12.421875 4.65625-25.6875 7.503907-39.511719 8.3125v-31.96875zm54.328125 17.183594-7.929687-29.089844c8.707031-4.109374 16.859374-9.214843 24.386718-15.109374l16.078125 20.671874c-9.589843 9.351563-20.535156 17.304688-32.535156 23.527344zm57.671875-27.863281c15.6875-20.210937 26.335938-44.425781 30.207031-70.863281 6.167969 7.421875 9.792969 16.847656 9.792969 26.703125v62.96875c-12.167969 11.605469-25.542969 21.957031-40 30.726562zm-184.648438-371.722656c-17.359374 15.875-28.886718 37.96875-30.945312 62.769531h-8.40625c-8.824219 0-16 7.175781-16 16v16c0 8.824219 7.175781 16 16 16h.207031c-5.078125 6.703125-8.207031 14.960938-8.207031 24 0 13.015625 6.34375 24.488281 16 31.792969v33.679687c-9.289062 3.3125-16 12.113282-16 22.527344 0 13.230469 10.769531 24 24 24s24-10.769531 24-24c0-10.414062-6.710938-19.214844-16-22.527344v-26.28125c.121094.023438.246094.015625.367188.039063 2.089843 23.210937 14.152343 43.53125 31.839843 56.769531h-.207031v17.632812l-104 24v6.367188c0 .671875.097656 1.320312.105469 1.992188-14.929688 10.777343-24.105469 28.253906-24.105469 46.800781v46.109375c-34.863281-40.605469-56-93.316406-56-150.902344 0-105.488281 70.800781-194.695312 167.351562-222.769531zm-39.351562 430.058593v-40.738281c27.214844 25.617188 63.761719 41.449219 104 41.449219s76.785156-15.832031 104-41.457031v40.738281c-31.304688 15.773438-66.617188 24.71875-104 24.71875s-72.695312-8.945312-104-24.710938zm0 0"/></svg>